inDegrees=no
num_controls=7
num_derivatives=13
num_iterations=115
num_multipliers=7
num_parameters=0
num_slacks=7
num_states=26
objective=5.930140
objective_accelerations=0.903295
objective_balance=0.051587
objective_effort=0.284901
objective_height=4.556259
objective_ligament=0.134098
solver_duration=1222.153967
status=Solve_Succeeded
success=true
DataType=double
version=3
OpenSimVersion=4.4-2022-07-23-0e9fedc
endheader
time	/jointset/ground_pelvis/pelvis_tilt/value	/jointset/ground_pelvis/pelvis_tx/value	/jointset/ground_pelvis/pelvis_ty/value	/jointset/hip_l/hip_flexion_l/value	/jointset/hip_l/hip_adduction_l/value	/jointset/hip_l/hip_rotation_l/value	/jointset/back/lumbar_extension/value	/jointset/patellofemoral_l/patellar_flexion_l/value	/jointset/knee_l/knee_flexion_l/value	/jointset/knee_l/knee_adduction_l/value	/jointset/knee_l/knee_rotation_l/value	/jointset/ankle_l/ankle_angle_l/value	/jointset/subtalar_l/subtalar_angle_l/value	/jointset/ground_pelvis/pelvis_tilt/speed	/jointset/ground_pelvis/pelvis_tx/speed	/jointset/ground_pelvis/pelvis_ty/speed	/jointset/hip_l/hip_flexion_l/speed	/jointset/hip_l/hip_adduction_l/speed	/jointset/hip_l/hip_rotation_l/speed	/jointset/back/lumbar_extension/speed	/jointset/patellofemoral_l/patellar_flexion_l/speed	/jointset/knee_l/knee_flexion_l/speed	/jointset/knee_l/knee_adduction_l/speed	/jointset/knee_l/knee_rotation_l/speed	/jointset/ankle_l/ankle_angle_l/speed	/jointset/subtalar_l/subtalar_angle_l/speed	/forceset/tau_hip_flexion_l	/forceset/tau_hip_adduction_l	/forceset/tau_hip_rotation_l	/forceset/tau_knee_flexion_l	/forceset/tau_ankle_angle_l	/forceset/tau_subtalar_angle_l	/forceset/tau_lumbar_extension	lambda_cid13_p0	lambda_cid13_p1	lambda_cid13_p2	lambda_cid13_p3	lambda_cid13_p4	lambda_cid13_p5	lambda_cid14_p0	/jointset/ground_pelvis/pelvis_tilt/accel	/jointset/ground_pelvis/pelvis_tx/accel	/jointset/ground_pelvis/pelvis_ty/accel	/jointset/hip_l/hip_flexion_l/accel	/jointset/hip_l/hip_adduction_l/accel	/jointset/hip_l/hip_rotation_l/accel	/jointset/back/lumbar_extension/accel	/jointset/patellofemoral_l/patellar_flexion_l/accel	/jointset/knee_l/knee_flexion_l/accel	/jointset/knee_l/knee_adduction_l/accel	/jointset/knee_l/knee_rotation_l/accel	/jointset/ankle_l/ankle_angle_l/accel	/jointset/subtalar_l/subtalar_angle_l/accel	gamma_cid13_p0	gamma_cid13_p1	gamma_cid13_p2	gamma_cid13_p3	gamma_cid13_p4	gamma_cid13_p5	gamma_cid14_p0
1.5	-0.31719232460339	0.01187658725682451	0.7441280854576099	1.104714939159954	-0.4229411583931134	-0.2658480978669706	-0.2250584559263024	0.9534675777793756	0.9534675777793307	0.01812236415112671	-0.17263801586971	0.2583560157937704	0.07802338100513638	0.5114409544145224	0.1849296860758519	0.6395593555268716	-2.464359497522026	0.2247634213833438	-0.5934302455238198	0.3212655074150892	-2.432683424497254	-2.432683424497267	-0.5290076527672332	0.03618315846592603	-0.7188888858892537	-0.1844257620842105	-0.1513788439756686	0.04283730143207994	-0.02161865769018916	-0.2239284799406282	-0.00742413778326718	0.04559536025774077	0.1530706411157886	-32.24070898029601	-16.13175752465322	4.491630792884377	-5.884755708285626	-511.7171914580958	-60.19522281582978	-18.21620591713144	0.7351243393021971	0.7049177614131849	-0.7395365267408432	-1.26122835295195	0.3705231694851416	-0.4563964778485192	1.481175487591066	-1.466350899036477	-1.466350899036478	-0.2019520860391897	0.5177011255902794	-0.9208776872041849	0.01870225491827698	6.089411412994611e-07	4.396911345294233e-06	7.995620061793398e-07	9.566615862805077e-07	3.348206086247983e-07	1.748296044959517e-06	5.832862007605983e-07
1.51	-0.3120412261211167	0.01376085246590996	0.7504853597817651	1.080010236030317	-0.4206764560801849	-0.2718093876054109	-0.2217730574687486	0.9290702291241503	0.9290702291241347	0.01282345724371241	-0.1722552673624157	0.2511217686136005	0.07617859912199386	0.518690674485942	0.1918864265800184	0.6317527551604003	-2.476230810186427	0.2281693185851238	-0.5987551775129512	0.3357692082872005	-2.446449267570386	-2.446449267570426	-0.5307183706449121	0.04039340190923849	-0.727847763313198	-0.184463553489072	-0.1460654240549563	0.04142900074933773	-0.02064689227854681	-0.2196658397904518	-0.006083773248368273	0.04460773241067723	0.1485305637297387	-31.62276575153816	-15.95237284402419	4.624482429647464	-5.779880998094074	-507.0069784935502	-60.33680077760263	-19.38770124056081	0.7066251451099144	0.6857213527587788	-0.822572427107141	-1.097599936933652	0.3238711124507422	-0.5592688687741297	1.428221015864166	-1.281268651011974	-1.281268651016018	-0.1465605070473633	0.3769557939571647	-0.8661835245803594	-0.005869930673591029	6.185490823474e-07	4.677413380366413e-06	1.008661764967405e-06	1.01342128712315e-06	3.200430919518752e-07	1.809006088173729e-06	6.058216784293369e-07
1.52	-0.3068202845773281	0.01571361891160498	0.756760297975154	1.055197316331263	-0.4183780451718599	-0.2778216721256252	-0.2183439712767092	0.9045453085102843	0.9045453085103069	0.0075092573839435	-0.1718295624526314	0.2438013745082655	0.07433526930630498	0.5254095667193146	0.1986299333977678	0.6230921293736112	-2.486002811400799	0.2315051404639887	-0.6036292018752394	0.3500030543130455	-2.458197816225935	-2.458197816226002	-0.5320662432592096	0.04477443896276839	-0.7361182709207751	-0.1841353485933461	-0.1407520041344236	0.04002070006647233	-0.01967512686664918	-0.2154031996402706	-0.004743408713491398	0.04362010456342855	0.1439904863435574	-31.00280009341927	-15.77974231072226	4.76571962991736	-5.717126243950085	-502.2840817663933	-60.5091326276184	-20.57223601544542	0.6289587716928147	0.6622710241296809	-0.9103416108044458	-0.8413660629462881	0.3565081049020775	-0.3662149524799024	1.427204518337788	-1.062892015519713	-1.062892015519713	-0.1293830333628677	0.5518598476337684	-0.7832037239308113	0.09190151503570958	6.216275475218844e-07	4.944870174878824e-06	1.236529032921565e-06	1.068757044307115e-06	2.954712710297895e-07	1.84726881035477e-06	6.25634886971125e-07
1.53	-0.3015348430787496	0.01773270232545243	0.7629444605946185	1.030297159265452	-0.4160466247052172	-0.2838812695889646	-0.2147740444183615	0.8799130850216486	0.8799130850216139	0.002183848800834397	-0.1713598745270037	0.2364018502321618	0.07249714871160771	0.5315850727321896	0.2051437724299477	0.6136081000976111	-2.493673453213831	0.2347650739139251	-0.6082169503063533	0.363923082790215	-2.467897360353856	-2.467897360353901	-0.5329664136447896	0.04917692947660132	-0.7436629238219453	-0.1834265395888929	-0.1353851179403059	0.03831279496453627	-0.01881064390456564	-0.2114387260739923	-0.003306575090143647	0.04259077377884596	0.1393946822736232	-30.37403771621625	-15.59112464485285	4.90507710681395	-5.615167873001574	-497.8485237004434	-60.7057332996276	-21.76598141035439	0.5977178517206448	0.6397240801627783	-0.9872293958150756	-0.6767273861291905	0.3079156100952485	-0.4936807234712282	1.365516827549077	-0.871187761765542	-0.8711877617623318	-0.06210095661627403	0.38683130443033	-0.7212301354992099	0.0686549377465742	6.177684445808232e-07	5.198466401296482e-06	1.484336779364701e-06	1.122579861353734e-06	2.604930018429686e-07	1.861681253938065e-06	6.42555684565528e-07
1.54	-0.2961904722529247	0.01981568087710161	0.7690298237593592	1.005330932952365	-0.41368316897507	-0.2899844697236229	-0.2110666943122165	0.8551943256616403	0.8551943256616097	-0.003148914869105551	-0.1708456841660333	0.2289306526145857	0.07066777307587364	0.5371954321705246	0.211408960958113	0.6033322384288851	-2.49921666085276	0.2379121931661057	-0.6123497361392405	0.3774877038731004	-2.475504990495266	-2.475504990495291	-0.533537260648808	0.05367492603733066	-0.7504529392146793	-0.1823863568005821	-0.1300182317462691	0.0366048898625659	-0.01794616094192002	-0.2074742525076983	-0.001869741466802164	0.04156144299420629	0.134798878203622	-29.74469257227974	-15.408469093817	5.052076829948864	-5.545243566824755	-493.419079455436	-60.93298884245252	-22.96285830247938	0.5159294567848119	0.612540923326708	-1.068708089349658	-0.4158792281257836	0.3339452653508334	-0.2752224328345702	1.356123039480995	-0.6445092182175719	-0.644509218217573	-0.06351835705056563	0.5709610570130452	-0.6322762222436511	0.1581762718071882	6.12198598098009e-07	5.401669873988012e-06	1.681156666319829e-06	1.162066073082915e-06	2.303097678814004e-07	1.848696991626742e-06	6.567216999919115e-07
1.55	-0.2907928971038163	0.02195995001371981	0.7750085696058665	0.9803200889691672	-0.4112886938839203	-0.2961271859002944	-0.2072256199745631	0.8304100739641606	0.8304100739641235	-0.008485355411843662	-0.1702863760181782	0.2213953790903646	0.06885063992097634	0.5422189938796622	0.2173896461141968	0.5922949612239213	-2.502575867524243	0.2409702024522013	-0.6161155068398418	0.3906516278785541	-2.480980329737381	-2.48098032973742	-0.5336910815837755	0.05819820225365802	-0.7564737884471593	-0.180977207338995	-0.1247346424547248	0.03531012081870475	-0.01722532895897971	-0.2034608033085921	-0.0005435937794934446	0.04011804732181459	0.1302322565052449	-29.19165372862632	-15.00966765341323	5.138396617481388	-5.286434151833002	-489.277170394012	-60.72902531639242	-24.15452421082851	0.4803854306133098	0.5827888327434156	-1.139494592968049	-0.2396029855014098	0.2889985239212414	-0.4152037598564852	1.285196714282544	-0.4444281512164466	-0.4444281512185271	0.01859774721746593	0.3950870417756763	-0.5674636510187057	0.1406145089301647	6.046576775344793e-07	5.546812130429877e-06	1.819229671690953e-06	1.185034022163744e-06	2.056512484184927e-07	1.804146959480315e-06	6.67713727268186e-07
1.56	-0.2853481231570987	0.02416241730609745	0.7808732912689444	0.9552869205994773	-0.4088641847471782	-0.302305149658198	-0.2032551724702162	0.8055819924994212	0.8055819924994561	-0.01382135182205574	-0.1696814198806376	0.2138038021983652	0.06704926430581355	0.5466351916942273	0.2230485921100015	0.580527401742998	-2.503681538149397	0.2439190022855857	-0.6193992523877931	0.403362337212221	-2.484270943939815	-2.484270943939868	-0.5334484341612555	0.06280452398331697	-0.76171361277038	-0.1792348488535786	-0.1194510531631835	0.03401535177486939	-0.01650449697541117	-0.1994473541094698	0.0007825539078209496	0.03867465164945247	0.1256656348068518	-28.63832280995441	-14.61836235704097	5.23441367372717	-5.057404440903442	-485.1531563962739	-60.55691402923121	-25.33766683899907	0.394456677870331	0.548193091270853	-1.214764544541622	0.03482798113998364	0.3121033748085147	-0.1788174023045668	1.26548010512359	-0.2075642102813644	-0.2075642102813667	0.01577531444691072	0.5875701596793551	-0.4760712403917923	0.2248180765730234	5.932897490437571e-07	5.812484474022423e-06	2.128396148137895e-06	1.233499135387463e-06	1.612497116908429e-07	1.758827698261759e-06	6.829903507146162e-07
1.57	-0.2798622523793683	0.02641992307821536	0.7866168654353011	0.9302537125251676	-0.4064107408300962	-0.3085146310876455	-0.1991601706009932	0.780731912096132	0.7807319120960883	-0.01915250865213943	-0.1690309564940308	0.2061639386438	0.06526711263638436	0.550427534821493	0.2284025744843023	0.5680809343936928	-2.502595108902764	0.246738046796159	-0.6223674366780862	0.4155443451564604	-2.485371619180503	-2.485371619180516	-0.5327889025133713	0.06731436226256278	-0.7661132487803243	-0.1771496464607697	-0.113698660056257	0.03094351269553619	-0.01588876212319999	-0.1967450649720182	0.003073995274652671	0.03792519538447747	0.1207825273576935	-27.7704651491224	-14.62196232051116	5.437317356497099	-5.195797458869452	-481.4817450142078	-61.34477622481116	-26.51053344822463	0.3547767543401579	0.5217746540557041	-1.275551921152632	0.2001511128487463	0.2609359274218966	-0.3360919801014415	1.180507417730457	-0.005434650104578882	-0.005434650098612585	0.09129121435816599	0.3871443320787044	-0.3996575856977406	0.2058578797415543	5.771380606440443e-07	6.228819426553317e-06	2.65142946342961e-06	1.313835703789796e-06	9.216940338226583e-08	1.712546900703039e-06	7.036227193737411e-07
1.58	-0.2743418274455361	0.02872952344278526	0.7922327821099588	0.905242288886602	-0.4039302802802641	-0.3147498489675312	-0.1949461593965984	0.7558820018465682	0.7558820018465289	-0.0244770203407861	-0.1683345039906683	0.1984845291682547	0.06350691030270426	0.5535460229162036	0.2334675106004003	0.554995903403253	-2.499324650999172	0.2493223288363367	-0.6245465424767777	0.4271642042469675	-2.484236913186877	-2.48423691318685	-0.5321194058895327	0.07200234734307737	-0.7696227969663477	-0.1748449817036904	-0.1079462669493361	0.02787167361621763	-0.01527302727031434	-0.1940427758345563	0.005365436641485743	0.03717573911951299	0.1158994199085214	-26.90089657786145	-14.6265167659492	5.641119284847242	-5.353049096079114	-477.7916721716462	-62.13754981859819	-27.67270426038226	0.2596856713593352	0.4903838396302369	-1.342477272768552	0.471633712532205	0.2651508807293251	-0.02100170398423651	1.153050334377099	0.2395120365812452	0.2395120365812483	0.01776830963776763	0.6231995199331013	-0.2980536756076904	0.2687105494270912	4.327259112611508e-07	6.552092998794762e-06	3.988956961753556e-06	1.412499990737763e-06	-1.402624300843751e-07	1.413976713637245e-06	6.44403186485925e-07
1.59	-0.2687939784231643	0.03108806250699683	0.7977147407861452	0.8802757810772368	-0.4014237790797012	-0.3210069663797578	-0.190618429252629	0.7310548142807215	0.7310548142807056	-0.02978949890252021	-0.1675921818005233	0.1907747211241947	0.06177284192184938	0.5559315715798717	0.238169214880676	0.541303789283874	-2.493607964189736	0.2519354160567915	-0.6267255642809236	0.4382643446740846	-2.480811889622478	-2.480811889622434	-0.5304109955949496	0.07647165679479659	-0.7722067435138086	-0.1719506314966468	-0.1028519926582123	0.02670567072866307	-0.01489528709220387	-0.1902891837697947	0.006486191693840696	0.03549214510250565	0.1114637083803294	-26.47999503447092	-14.10700334077469	5.715897268801805	-4.947626171884741	-474.5348118375848	-61.79617184645102	-28.82512898871027	0.2139086680713902	0.4497225502050367	-1.396557868989217	0.676748654986926	0.2511233655924426	-0.2939613505262417	1.07087391595228	0.4522286834870023	0.4522286834895327	0.2436552499860582	0.3616425561802862	-0.2183549788965518	0.3004734832481232	1.142459934010929e-07	6.749068983500535e-06	6.431869422764044e-06	1.536037609997664e-06	-5.943856191226619e-07	7.7301378366901e-07	4.768132157844093e-07
